<svg xmlns="http://www.w3.org/2000/svg" xmlns:xlink="http://www.w3.org/1999/xlink" width="150" zoomAndPan="magnify" viewBox="0 0 112.5 112.499997" height="150" preserveAspectRatio="xMidYMid meet" version="1.0"><defs><clipPath id="d27b045dcb"><path d="M 0 0 L 112.003906 0 L 112.003906 112.003906 L 0 112.003906 Z M 0 0 " clip-rule="nonzero"/></clipPath><clipPath id="a3cfdd2ac0"><path d="M 24.167969 84.25 L 54.914062 84.25 L 54.914062 96.625 L 24.167969 96.625 Z M 24.167969 84.25 " clip-rule="nonzero"/></clipPath></defs><g clip-path="url(#d27b045dcb)"><path fill="#ffffff" d="M 0 0 L 112.5 0 L 112.5 472.5 L 0 472.5 Z M 0 0 " fill-opacity="1" fill-rule="nonzero"/><path fill="#ffffff" d="M 0 0 L 112.5 0 L 112.5 112.5 L 0 112.5 Z M 0 0 " fill-opacity="1" fill-rule="nonzero"/><path fill="#f3f7ff" d="M 0 0 L 112.5 0 L 112.5 112.5 L 0 112.5 Z M 0 0 " fill-opacity="1" fill-rule="nonzero"/></g><path fill="#f37b17" d="M 55.777344 65.800781 L 55.777344 69.226562 C 55.777344 71.480469 54.28125 73.746094 51.300781 75.460938 C 45.3125 78.898438 35.625 78.898438 29.636719 75.460938 C 26.640625 73.730469 25.15625 71.480469 25.15625 69.226562 L 25.15625 65.800781 L 55.777344 65.800781 " fill-opacity="1" fill-rule="nonzero"/><path fill="#f0a517" d="M 55.777344 64.476562 L 55.777344 67.902344 C 55.777344 69.78125 54.738281 71.675781 52.660156 73.222656 C 52.242188 73.554688 51.800781 73.84375 51.300781 74.136719 C 50.941406 74.34375 50.578125 74.535156 50.191406 74.714844 C 49.25 75.160156 48.238281 75.53125 47.183594 75.820312 C 46.378906 76.054688 45.5625 76.234375 44.714844 76.375 C 43.730469 76.539062 42.707031 76.652344 41.695312 76.691406 C 40.875 76.71875 40.042969 76.71875 39.242188 76.679688 C 38.214844 76.636719 37.203125 76.539062 36.21875 76.375 C 35.375 76.234375 34.554688 76.042969 33.75 75.820312 C 32.699219 75.53125 31.6875 75.160156 30.742188 74.714844 C 30.355469 74.535156 29.996094 74.34375 29.636719 74.136719 C 29.136719 73.84375 28.679688 73.554688 28.277344 73.238281 C 26.195312 71.664062 25.15625 69.78125 25.15625 67.902344 L 25.15625 64.476562 L 55.777344 64.476562 " fill-opacity="1" fill-rule="nonzero"/><path fill="#f0ce2f" d="M 51.296875 70.707031 C 45.316406 74.148438 35.621094 74.148438 29.640625 70.703125 C 23.660156 67.261719 23.660156 61.683594 29.640625 58.238281 C 35.617188 54.796875 45.316406 54.796875 51.296875 58.242188 C 57.277344 61.683594 57.277344 67.261719 51.296875 70.707031 " fill-opacity="1" fill-rule="nonzero"/><path fill="#f0a517" d="M 48.796875 69.265625 C 44.195312 71.914062 36.738281 71.914062 32.136719 69.265625 C 27.539062 66.617188 27.535156 62.324219 32.136719 59.679688 C 36.738281 57.03125 44.195312 57.03125 48.796875 59.679688 C 53.398438 62.324219 53.398438 66.617188 48.796875 69.265625 " fill-opacity="1" fill-rule="nonzero"/><path fill="#f0ce2f" d="M 47.605469 68.578125 C 43.664062 70.847656 37.273438 70.847656 33.332031 68.578125 C 29.390625 66.3125 29.390625 62.632812 33.332031 60.363281 C 37.273438 58.097656 43.664062 58.097656 47.605469 60.363281 C 51.546875 62.632812 51.546875 66.3125 47.605469 68.578125 " fill-opacity="1" fill-rule="nonzero"/><path fill="#f37b17" d="M 30.742188 71.289062 L 30.742188 74.714844 C 30.355469 74.535156 29.996094 74.34375 29.636719 74.136719 C 29.136719 73.84375 28.679688 73.554688 28.277344 73.238281 L 28.277344 69.808594 C 28.691406 70.128906 29.136719 70.417969 29.636719 70.707031 C 29.996094 70.914062 30.355469 71.109375 30.742188 71.289062 " fill-opacity="1" fill-rule="nonzero"/><path fill="#f37b17" d="M 36.21875 72.945312 L 36.21875 76.375 C 35.375 76.234375 34.554688 76.042969 33.75 75.820312 L 33.75 72.394531 C 34.554688 72.617188 35.375 72.808594 36.21875 72.945312 " fill-opacity="1" fill-rule="nonzero"/><path fill="#f37b17" d="M 41.695312 73.265625 L 41.695312 76.691406 C 40.875 76.71875 40.042969 76.71875 39.242188 76.679688 L 39.242188 73.25 C 40.042969 73.292969 40.875 73.292969 41.695312 73.265625 " fill-opacity="1" fill-rule="nonzero"/><path fill="#f37b17" d="M 47.183594 72.394531 L 47.183594 75.820312 C 46.378906 76.054688 45.5625 76.234375 44.714844 76.375 L 44.714844 72.945312 C 45.5625 72.808594 46.378906 72.628906 47.183594 72.394531 " fill-opacity="1" fill-rule="nonzero"/><path fill="#f37b17" d="M 52.660156 69.808594 L 52.660156 73.222656 C 52.242188 73.554688 51.800781 73.84375 51.300781 74.136719 C 50.941406 74.34375 50.578125 74.535156 50.191406 74.714844 L 50.191406 71.289062 C 50.578125 71.109375 50.941406 70.914062 51.300781 70.707031 C 51.800781 70.417969 52.242188 70.128906 52.660156 69.808594 " fill-opacity="1" fill-rule="nonzero"/><path fill="#f37b17" d="M 82.917969 76.851562 L 82.917969 80.277344 C 82.917969 82.53125 81.421875 84.796875 78.441406 86.511719 C 72.453125 89.949219 62.765625 89.949219 56.777344 86.511719 C 53.78125 84.78125 52.300781 82.53125 52.300781 80.277344 L 52.300781 76.851562 L 82.917969 76.851562 " fill-opacity="1" fill-rule="nonzero"/><path fill="#f0a517" d="M 82.917969 75.527344 L 82.917969 78.953125 C 82.917969 80.832031 81.878906 82.726562 79.800781 84.273438 C 79.382812 84.605469 78.941406 84.894531 78.441406 85.1875 C 78.082031 85.394531 77.722656 85.585938 77.332031 85.765625 C 76.390625 86.210938 75.378906 86.582031 74.324219 86.871094 C 73.523438 87.105469 72.703125 87.289062 71.859375 87.425781 C 70.875 87.589844 69.847656 87.703125 68.835938 87.742188 C 68.019531 87.769531 67.1875 87.769531 66.382812 87.730469 C 65.355469 87.6875 64.347656 87.589844 63.359375 87.425781 C 62.515625 87.289062 61.699219 87.09375 60.894531 86.871094 C 59.839844 86.582031 58.828125 86.210938 57.886719 85.765625 C 57.496094 85.585938 57.136719 85.394531 56.777344 85.1875 C 56.277344 84.894531 55.820312 84.605469 55.417969 84.289062 C 53.339844 82.714844 52.300781 80.832031 52.300781 78.953125 L 52.300781 75.527344 L 82.917969 75.527344 " fill-opacity="1" fill-rule="nonzero"/><path fill="#f0ce2f" d="M 78.4375 81.757812 C 72.457031 85.199219 62.761719 85.199219 56.78125 81.757812 C 50.800781 78.3125 50.800781 72.734375 56.78125 69.292969 C 62.761719 65.847656 72.457031 65.847656 78.4375 69.292969 C 84.417969 72.734375 84.417969 78.3125 78.4375 81.757812 " fill-opacity="1" fill-rule="nonzero"/><path fill="#f0a517" d="M 75.941406 80.316406 C 71.339844 82.964844 63.878906 82.964844 59.28125 80.316406 C 54.679688 77.667969 54.679688 73.378906 59.28125 70.730469 C 63.878906 68.082031 71.339844 68.082031 75.941406 70.730469 C 80.539062 73.378906 80.539062 77.667969 75.941406 80.316406 " fill-opacity="1" fill-rule="nonzero"/><path fill="#f0ce2f" d="M 74.746094 79.628906 C 70.804688 81.898438 64.414062 81.898438 60.472656 79.628906 C 56.53125 77.363281 56.53125 73.683594 60.472656 71.417969 C 64.414062 69.148438 70.804688 69.148438 74.746094 71.417969 C 78.6875 73.683594 78.6875 77.363281 74.746094 79.628906 " fill-opacity="1" fill-rule="nonzero"/><path fill="#f37b17" d="M 57.886719 82.339844 L 57.886719 85.765625 C 57.496094 85.585938 57.136719 85.394531 56.777344 85.1875 C 56.277344 84.894531 55.820312 84.605469 55.417969 84.289062 L 55.417969 80.863281 C 55.835938 81.179688 56.277344 81.46875 56.777344 81.757812 C 57.136719 81.96875 57.496094 82.160156 57.886719 82.339844 " fill-opacity="1" fill-rule="nonzero"/><path fill="#f37b17" d="M 63.359375 84 L 63.359375 87.425781 C 62.515625 87.289062 61.699219 87.09375 60.894531 86.871094 L 60.894531 83.445312 C 61.699219 83.667969 62.515625 83.859375 63.359375 84 " fill-opacity="1" fill-rule="nonzero"/><path fill="#f37b17" d="M 68.835938 84.316406 L 68.835938 87.742188 C 68.019531 87.769531 67.1875 87.769531 66.382812 87.730469 L 66.382812 84.300781 C 67.1875 84.34375 68.019531 84.34375 68.835938 84.316406 " fill-opacity="1" fill-rule="nonzero"/><path fill="#f37b17" d="M 74.324219 83.445312 L 74.324219 86.871094 C 73.523438 87.105469 72.703125 87.289062 71.859375 87.425781 L 71.859375 84 C 72.703125 83.859375 73.523438 83.679688 74.324219 83.445312 " fill-opacity="1" fill-rule="nonzero"/><path fill="#f37b17" d="M 79.800781 80.863281 L 79.800781 84.273438 C 79.382812 84.605469 78.941406 84.894531 78.441406 85.1875 C 78.082031 85.394531 77.722656 85.585938 77.332031 85.765625 L 77.332031 82.339844 C 77.722656 82.160156 78.082031 81.96875 78.441406 81.757812 C 78.941406 81.46875 79.382812 81.179688 79.800781 80.863281 " fill-opacity="1" fill-rule="nonzero"/><path fill="#f37b17" d="M 82.917969 70.871094 L 82.917969 74.296875 C 82.917969 76.550781 81.421875 78.816406 78.441406 80.53125 C 72.453125 83.96875 62.765625 83.96875 56.777344 80.53125 C 53.78125 78.800781 52.300781 76.550781 52.300781 74.296875 L 52.300781 70.871094 L 82.917969 70.871094 " fill-opacity="1" fill-rule="nonzero"/><path fill="#f0a517" d="M 82.917969 69.546875 L 82.917969 72.972656 C 82.917969 74.855469 81.878906 76.746094 79.800781 78.292969 C 79.382812 78.625 78.941406 78.914062 78.441406 79.207031 C 78.082031 79.414062 77.722656 79.605469 77.332031 79.785156 C 76.390625 80.230469 75.378906 80.601562 74.324219 80.894531 C 73.523438 81.128906 72.703125 81.308594 71.859375 81.445312 C 70.875 81.609375 69.847656 81.722656 68.835938 81.761719 C 68.019531 81.789062 67.1875 81.789062 66.382812 81.75 C 65.355469 81.707031 64.347656 81.609375 63.359375 81.445312 C 62.515625 81.308594 61.699219 81.113281 60.894531 80.894531 C 59.839844 80.601562 58.828125 80.230469 57.886719 79.785156 C 57.496094 79.605469 57.136719 79.414062 56.777344 79.207031 C 56.277344 78.914062 55.820312 78.625 55.417969 78.308594 C 53.339844 76.734375 52.300781 74.855469 52.300781 72.972656 L 52.300781 69.546875 L 82.917969 69.546875 " fill-opacity="1" fill-rule="nonzero"/><path fill="#f0ce2f" d="M 78.4375 75.777344 C 72.457031 79.21875 62.761719 79.21875 56.78125 75.777344 C 50.800781 72.332031 50.800781 66.753906 56.78125 63.3125 C 62.761719 59.867188 72.457031 59.867188 78.4375 63.3125 C 84.417969 66.753906 84.417969 72.335938 78.4375 75.777344 " fill-opacity="1" fill-rule="nonzero"/><path fill="#f0a517" d="M 75.941406 74.335938 C 71.339844 76.984375 63.878906 76.984375 59.28125 74.335938 C 54.679688 71.691406 54.679688 67.398438 59.28125 64.75 C 63.878906 62.101562 71.339844 62.101562 75.941406 64.75 C 80.539062 67.398438 80.539062 71.691406 75.941406 74.335938 " fill-opacity="1" fill-rule="nonzero"/><path fill="#f0ce2f" d="M 74.746094 73.652344 C 70.804688 75.917969 64.414062 75.917969 60.472656 73.652344 C 56.53125 71.382812 56.53125 67.703125 60.472656 65.4375 C 64.414062 63.167969 70.804688 63.167969 74.746094 65.4375 C 78.6875 67.703125 78.6875 71.382812 74.746094 73.652344 " fill-opacity="1" fill-rule="nonzero"/><path fill="#f37b17" d="M 57.886719 76.359375 L 57.886719 79.785156 C 57.496094 79.605469 57.136719 79.414062 56.777344 79.207031 C 56.277344 78.914062 55.820312 78.625 55.417969 78.308594 L 55.417969 74.882812 C 55.835938 75.199219 56.277344 75.488281 56.777344 75.777344 C 57.136719 75.988281 57.496094 76.179688 57.886719 76.359375 " fill-opacity="1" fill-rule="nonzero"/><path fill="#f37b17" d="M 63.359375 78.019531 L 63.359375 81.445312 C 62.515625 81.308594 61.699219 81.113281 60.894531 80.894531 L 60.894531 77.464844 C 61.699219 77.6875 62.515625 77.878906 63.359375 78.019531 " fill-opacity="1" fill-rule="nonzero"/><path fill="#f37b17" d="M 68.835938 78.335938 L 68.835938 81.761719 C 68.019531 81.789062 67.1875 81.789062 66.382812 81.75 L 66.382812 78.324219 C 67.1875 78.363281 68.019531 78.363281 68.835938 78.335938 " fill-opacity="1" fill-rule="nonzero"/><path fill="#f37b17" d="M 74.324219 77.464844 L 74.324219 80.894531 C 73.523438 81.128906 72.703125 81.308594 71.859375 81.445312 L 71.859375 78.019531 C 72.703125 77.878906 73.523438 77.699219 74.324219 77.464844 " fill-opacity="1" fill-rule="nonzero"/><path fill="#f37b17" d="M 79.800781 74.882812 L 79.800781 78.292969 C 79.382812 78.625 78.941406 78.914062 78.441406 79.207031 C 78.082031 79.414062 77.722656 79.605469 77.332031 79.785156 L 77.332031 76.359375 C 77.722656 76.179688 78.082031 75.988281 78.441406 75.777344 C 78.941406 75.488281 79.382812 75.199219 79.800781 74.882812 " fill-opacity="1" fill-rule="nonzero"/><path fill="#f37b17" d="M 82.917969 64.890625 L 82.917969 68.316406 C 82.917969 70.570312 81.421875 72.835938 78.441406 74.550781 C 72.453125 77.992188 62.765625 77.992188 56.777344 74.550781 C 53.78125 72.824219 52.300781 70.570312 52.300781 68.316406 L 52.300781 64.890625 L 82.917969 64.890625 " fill-opacity="1" fill-rule="nonzero"/><path fill="#f0a517" d="M 82.917969 63.566406 L 82.917969 66.992188 C 82.917969 68.875 81.878906 70.765625 79.800781 72.3125 C 79.382812 72.644531 78.941406 72.9375 78.441406 73.226562 C 78.082031 73.433594 77.722656 73.625 77.332031 73.808594 C 76.390625 74.25 75.378906 74.621094 74.324219 74.914062 C 73.523438 75.148438 72.703125 75.324219 71.859375 75.464844 C 70.875 75.628906 69.847656 75.742188 68.835938 75.78125 C 68.019531 75.808594 67.1875 75.808594 66.382812 75.769531 C 65.355469 75.726562 64.347656 75.628906 63.359375 75.464844 C 62.515625 75.324219 61.699219 75.132812 60.894531 74.914062 C 59.839844 74.621094 58.828125 74.25 57.886719 73.808594 C 57.496094 73.625 57.136719 73.433594 56.777344 73.226562 C 56.277344 72.9375 55.820312 72.644531 55.417969 72.328125 C 53.339844 70.753906 52.300781 68.875 52.300781 66.992188 L 52.300781 63.566406 L 82.917969 63.566406 " fill-opacity="1" fill-rule="nonzero"/><path fill="#f0ce2f" d="M 78.4375 69.796875 C 72.457031 73.238281 62.761719 73.238281 56.78125 69.796875 C 50.800781 66.351562 50.800781 60.773438 56.78125 57.332031 C 62.761719 53.886719 72.457031 53.890625 78.4375 57.332031 C 84.417969 60.773438 84.417969 66.355469 78.4375 69.796875 " fill-opacity="1" fill-rule="nonzero"/><path fill="#f0a517" d="M 75.941406 68.355469 C 71.339844 71.003906 63.878906 71.003906 59.28125 68.355469 C 54.679688 65.710938 54.679688 61.417969 59.28125 58.769531 C 63.878906 56.121094 71.339844 56.121094 75.941406 58.769531 C 80.539062 61.417969 80.539062 65.710938 75.941406 68.355469 " fill-opacity="1" fill-rule="nonzero"/><path fill="#f0ce2f" d="M 74.746094 67.671875 C 70.804688 69.9375 64.414062 69.9375 60.472656 67.671875 C 56.53125 65.402344 56.53125 61.722656 60.472656 59.457031 C 64.414062 57.1875 70.804688 57.1875 74.746094 59.457031 C 78.6875 61.722656 78.6875 65.402344 74.746094 67.671875 " fill-opacity="1" fill-rule="nonzero"/><path fill="#f37b17" d="M 57.886719 70.378906 L 57.886719 73.808594 C 57.496094 73.625 57.136719 73.433594 56.777344 73.226562 C 56.277344 72.9375 55.820312 72.644531 55.417969 72.328125 L 55.417969 68.902344 C 55.835938 69.21875 56.277344 69.507812 56.777344 69.800781 C 57.136719 70.007812 57.496094 70.199219 57.886719 70.378906 " fill-opacity="1" fill-rule="nonzero"/><path fill="#f37b17" d="M 63.359375 72.039062 L 63.359375 75.464844 C 62.515625 75.324219 61.699219 75.132812 60.894531 74.914062 L 60.894531 71.484375 C 61.699219 71.707031 62.515625 71.898438 63.359375 72.039062 " fill-opacity="1" fill-rule="nonzero"/><path fill="#f37b17" d="M 68.835938 72.355469 L 68.835938 75.78125 C 68.019531 75.808594 67.1875 75.808594 66.382812 75.769531 L 66.382812 72.34375 C 67.1875 72.382812 68.019531 72.382812 68.835938 72.355469 " fill-opacity="1" fill-rule="nonzero"/><path fill="#f37b17" d="M 74.324219 71.484375 L 74.324219 74.914062 C 73.523438 75.148438 72.703125 75.324219 71.859375 75.464844 L 71.859375 72.039062 C 72.703125 71.898438 73.523438 71.71875 74.324219 71.484375 " fill-opacity="1" fill-rule="nonzero"/><path fill="#f37b17" d="M 79.800781 68.902344 L 79.800781 72.3125 C 79.382812 72.644531 78.941406 72.9375 78.441406 73.226562 C 78.082031 73.433594 77.722656 73.625 77.332031 73.808594 L 77.332031 70.378906 C 77.722656 70.199219 78.082031 70.007812 78.441406 69.800781 C 78.941406 69.507812 79.382812 69.21875 79.800781 68.902344 " fill-opacity="1" fill-rule="nonzero"/><g clip-path="url(#a3cfdd2ac0)"><path fill="#f37b17" d="M 54.910156 84.386719 L 54.910156 87.8125 C 54.910156 90.066406 53.414062 92.332031 50.433594 94.046875 C 44.445312 97.484375 34.753906 97.484375 28.769531 94.046875 C 25.773438 92.316406 24.289062 90.066406 24.289062 87.8125 L 24.289062 84.386719 L 54.910156 84.386719 " fill-opacity="1" fill-rule="nonzero"/></g><path fill="#f0a517" d="M 54.910156 83.0625 L 54.910156 86.488281 C 54.910156 88.371094 53.871094 90.261719 51.792969 91.808594 C 51.375 92.140625 50.933594 92.433594 50.433594 92.722656 C 50.070312 92.929688 49.710938 93.121094 49.324219 93.304688 C 48.382812 93.746094 47.371094 94.117188 46.316406 94.40625 C 45.511719 94.644531 44.695312 94.820312 43.847656 94.960938 C 42.863281 95.125 41.839844 95.238281 40.828125 95.277344 C 40.007812 95.304688 39.175781 95.304688 38.375 95.265625 C 37.347656 95.222656 36.335938 95.125 35.351562 94.960938 C 34.503906 94.820312 33.6875 94.628906 32.882812 94.40625 C 31.832031 94.117188 30.820312 93.746094 29.875 93.304688 C 29.488281 93.121094 29.128906 92.929688 28.769531 92.722656 C 28.269531 92.433594 27.808594 92.140625 27.410156 91.824219 C 25.328125 90.25 24.289062 88.371094 24.289062 86.488281 L 24.289062 83.0625 L 54.910156 83.0625 " fill-opacity="1" fill-rule="nonzero"/><path fill="#f0ce2f" d="M 50.429688 89.292969 C 44.449219 92.734375 34.753906 92.734375 28.773438 89.292969 C 22.789062 85.847656 22.789062 80.269531 28.769531 76.828125 C 34.75 73.382812 44.449219 73.382812 50.429688 76.828125 C 56.410156 80.269531 56.410156 85.847656 50.429688 89.292969 " fill-opacity="1" fill-rule="nonzero"/><path fill="#f0a517" d="M 47.929688 87.851562 C 43.328125 90.5 35.871094 90.5 31.269531 87.851562 C 26.667969 85.207031 26.667969 80.910156 31.269531 78.265625 C 35.871094 75.617188 43.328125 75.617188 47.929688 78.265625 C 52.53125 80.914062 52.53125 85.207031 47.929688 87.851562 " fill-opacity="1" fill-rule="nonzero"/><path fill="#f0ce2f" d="M 46.738281 87.167969 C 42.796875 89.433594 36.40625 89.433594 32.464844 87.167969 C 28.523438 84.898438 28.523438 81.21875 32.464844 78.953125 C 36.40625 76.683594 42.796875 76.683594 46.738281 78.953125 C 50.679688 81.21875 50.679688 84.898438 46.738281 87.167969 " fill-opacity="1" fill-rule="nonzero"/><path fill="#f37b17" d="M 29.875 89.875 L 29.875 93.304688 C 29.488281 93.121094 29.128906 92.929688 28.769531 92.722656 C 28.269531 92.433594 27.808594 92.140625 27.410156 91.824219 L 27.410156 88.398438 C 27.824219 88.714844 28.269531 89.003906 28.769531 89.292969 C 29.128906 89.503906 29.488281 89.695312 29.875 89.875 " fill-opacity="1" fill-rule="nonzero"/><path fill="#f37b17" d="M 35.351562 91.535156 L 35.351562 94.960938 C 34.503906 94.820312 33.6875 94.628906 32.882812 94.40625 L 32.882812 90.980469 C 33.6875 91.203125 34.503906 91.394531 35.351562 91.535156 " fill-opacity="1" fill-rule="nonzero"/><path fill="#f37b17" d="M 40.828125 91.851562 L 40.828125 95.277344 C 40.007812 95.304688 39.175781 95.304688 38.375 95.265625 L 38.375 91.839844 C 39.175781 91.878906 40.007812 91.878906 40.828125 91.851562 " fill-opacity="1" fill-rule="nonzero"/><path fill="#f37b17" d="M 46.316406 90.980469 L 46.316406 94.40625 C 45.511719 94.644531 44.695312 94.820312 43.847656 94.960938 L 43.847656 91.535156 C 44.695312 91.394531 45.511719 91.214844 46.316406 90.980469 " fill-opacity="1" fill-rule="nonzero"/><path fill="#f37b17" d="M 51.792969 88.398438 L 51.792969 91.808594 C 51.375 92.140625 50.933594 92.433594 50.433594 92.722656 C 50.070312 92.929688 49.710938 93.121094 49.324219 93.304688 L 49.324219 89.875 C 49.710938 89.695312 50.070312 89.503906 50.433594 89.292969 C 50.933594 89.003906 51.375 88.714844 51.792969 88.398438 " fill-opacity="1" fill-rule="nonzero"/><path fill="#f37b17" d="M 54.910156 78.40625 L 54.910156 81.832031 C 54.910156 84.085938 53.414062 86.351562 50.433594 88.066406 C 44.445312 91.507812 34.753906 91.507812 28.769531 88.066406 C 25.773438 86.339844 24.289062 84.085938 24.289062 81.832031 L 24.289062 78.40625 L 54.910156 78.40625 " fill-opacity="1" fill-rule="nonzero"/><path fill="#f0a517" d="M 54.910156 77.082031 L 54.910156 80.511719 C 54.910156 82.390625 53.871094 84.28125 51.792969 85.828125 C 51.375 86.160156 50.933594 86.453125 50.433594 86.742188 C 50.070312 86.949219 49.710938 87.140625 49.324219 87.324219 C 48.382812 87.765625 47.371094 88.136719 46.316406 88.425781 C 45.511719 88.664062 44.695312 88.839844 43.847656 88.980469 C 42.863281 89.144531 41.839844 89.257812 40.828125 89.296875 C 40.007812 89.324219 39.175781 89.324219 38.375 89.285156 C 37.347656 89.242188 36.335938 89.144531 35.351562 88.980469 C 34.503906 88.839844 33.6875 88.648438 32.882812 88.425781 C 31.832031 88.136719 30.820312 87.765625 29.875 87.324219 C 29.488281 87.140625 29.128906 86.949219 28.769531 86.742188 C 28.269531 86.453125 27.808594 86.160156 27.410156 85.84375 C 25.328125 84.269531 24.289062 82.390625 24.289062 80.511719 L 24.289062 77.082031 L 54.910156 77.082031 " fill-opacity="1" fill-rule="nonzero"/><path fill="#f0ce2f" d="M 50.429688 83.3125 C 44.449219 86.753906 34.753906 86.753906 28.773438 83.3125 C 22.789062 79.867188 22.789062 74.289062 28.769531 70.847656 C 34.75 67.402344 44.449219 67.402344 50.429688 70.847656 C 56.410156 74.289062 56.410156 79.867188 50.429688 83.3125 " fill-opacity="1" fill-rule="nonzero"/><path fill="#f0a517" d="M 47.929688 81.871094 C 43.328125 84.519531 35.871094 84.519531 31.269531 81.871094 C 26.667969 79.226562 26.667969 74.933594 31.269531 72.285156 C 35.871094 69.636719 43.328125 69.636719 47.929688 72.285156 C 52.53125 74.933594 52.53125 79.226562 47.929688 81.871094 " fill-opacity="1" fill-rule="nonzero"/><path fill="#f0ce2f" d="M 46.738281 81.1875 C 42.796875 83.453125 36.40625 83.453125 32.464844 81.1875 C 28.523438 78.917969 28.523438 75.238281 32.464844 72.972656 C 36.40625 70.703125 42.796875 70.703125 46.738281 72.972656 C 50.679688 75.238281 50.679688 78.917969 46.738281 81.1875 " fill-opacity="1" fill-rule="nonzero"/><path fill="#f37b17" d="M 29.875 83.894531 L 29.875 87.324219 C 29.488281 87.140625 29.128906 86.949219 28.769531 86.742188 C 28.269531 86.453125 27.808594 86.160156 27.410156 85.84375 L 27.410156 82.417969 C 27.824219 82.734375 28.269531 83.023438 28.769531 83.316406 C 29.128906 83.523438 29.488281 83.714844 29.875 83.894531 " fill-opacity="1" fill-rule="nonzero"/><path fill="#f37b17" d="M 35.351562 85.554688 L 35.351562 88.980469 C 34.503906 88.839844 33.6875 88.648438 32.882812 88.425781 L 32.882812 85 C 33.6875 85.222656 34.503906 85.414062 35.351562 85.554688 " fill-opacity="1" fill-rule="nonzero"/><path fill="#f37b17" d="M 40.828125 85.871094 L 40.828125 89.296875 C 40.007812 89.324219 39.175781 89.324219 38.375 89.285156 L 38.375 85.855469 C 39.175781 85.898438 40.007812 85.898438 40.828125 85.871094 " fill-opacity="1" fill-rule="nonzero"/><path fill="#f37b17" d="M 46.316406 85 L 46.316406 88.425781 C 45.511719 88.664062 44.695312 88.839844 43.847656 88.980469 L 43.847656 85.554688 C 44.695312 85.414062 45.511719 85.234375 46.316406 85 " fill-opacity="1" fill-rule="nonzero"/><path fill="#f37b17" d="M 51.792969 82.417969 L 51.792969 85.828125 C 51.375 86.160156 50.933594 86.453125 50.433594 86.742188 C 50.070312 86.949219 49.710938 87.140625 49.324219 87.324219 L 49.324219 83.894531 C 49.710938 83.714844 50.070312 83.523438 50.433594 83.316406 C 50.933594 83.023438 51.375 82.734375 51.792969 82.417969 " fill-opacity="1" fill-rule="nonzero"/><path fill="#f37b17" d="M 82.917969 58.910156 L 82.917969 62.335938 C 82.917969 64.589844 81.421875 66.855469 78.441406 68.570312 C 72.453125 72.011719 62.765625 72.011719 56.777344 68.570312 C 53.78125 66.84375 52.300781 64.589844 52.300781 62.335938 L 52.300781 58.910156 L 82.917969 58.910156 " fill-opacity="1" fill-rule="nonzero"/><path fill="#f0a517" d="M 82.917969 57.585938 L 82.917969 61.015625 C 82.917969 62.894531 81.878906 64.785156 79.800781 66.332031 C 79.382812 66.664062 78.941406 66.957031 78.441406 67.246094 C 78.082031 67.453125 77.722656 67.648438 77.332031 67.828125 C 76.390625 68.269531 75.378906 68.640625 74.324219 68.933594 C 73.523438 69.167969 72.703125 69.347656 71.859375 69.484375 C 70.875 69.652344 69.847656 69.761719 68.835938 69.800781 C 68.019531 69.828125 67.1875 69.828125 66.382812 69.789062 C 65.355469 69.746094 64.347656 69.652344 63.359375 69.484375 C 62.515625 69.347656 61.699219 69.152344 60.894531 68.933594 C 59.839844 68.640625 58.828125 68.269531 57.886719 67.828125 C 57.496094 67.648438 57.136719 67.453125 56.777344 67.246094 C 56.277344 66.957031 55.820312 66.664062 55.417969 66.347656 C 53.339844 64.773438 52.300781 62.894531 52.300781 61.015625 L 52.300781 57.585938 L 82.917969 57.585938 " fill-opacity="1" fill-rule="nonzero"/><path fill="#f0ce2f" d="M 78.4375 63.816406 C 72.457031 67.257812 62.761719 67.257812 56.78125 63.816406 C 50.800781 60.371094 50.800781 54.792969 56.78125 51.351562 C 62.761719 47.90625 72.457031 47.910156 78.4375 51.351562 C 84.417969 54.792969 84.417969 60.375 78.4375 63.816406 " fill-opacity="1" fill-rule="nonzero"/><path fill="#f0a517" d="M 75.941406 62.378906 C 71.339844 65.023438 63.878906 65.023438 59.28125 62.375 C 54.679688 59.730469 54.679688 55.4375 59.28125 52.789062 C 63.878906 50.140625 71.339844 50.140625 75.941406 52.789062 C 80.539062 55.4375 80.539062 59.730469 75.941406 62.378906 " fill-opacity="1" fill-rule="nonzero"/><path fill="#f0ce2f" d="M 74.746094 61.691406 C 70.804688 63.957031 64.414062 63.957031 60.472656 61.691406 C 56.53125 59.421875 56.53125 55.742188 60.472656 53.476562 C 64.414062 51.207031 70.804688 51.207031 74.746094 53.476562 C 78.6875 55.742188 78.6875 59.421875 74.746094 61.691406 " fill-opacity="1" fill-rule="nonzero"/><path fill="#f37b17" d="M 57.886719 64.398438 L 57.886719 67.828125 C 57.496094 67.648438 57.136719 67.453125 56.777344 67.246094 C 56.277344 66.957031 55.820312 66.664062 55.417969 66.347656 L 55.417969 62.921875 C 55.835938 63.238281 56.277344 63.527344 56.777344 63.820312 C 57.136719 64.027344 57.496094 64.21875 57.886719 64.398438 " fill-opacity="1" fill-rule="nonzero"/><path fill="#f37b17" d="M 63.359375 66.058594 L 63.359375 69.484375 C 62.515625 69.347656 61.699219 69.152344 60.894531 68.933594 L 60.894531 65.503906 C 61.699219 65.726562 62.515625 65.917969 63.359375 66.058594 " fill-opacity="1" fill-rule="nonzero"/><path fill="#f37b17" d="M 68.835938 66.375 L 68.835938 69.800781 C 68.019531 69.828125 67.1875 69.828125 66.382812 69.789062 L 66.382812 66.363281 C 67.1875 66.402344 68.019531 66.402344 68.835938 66.375 " fill-opacity="1" fill-rule="nonzero"/><path fill="#f37b17" d="M 74.324219 65.503906 L 74.324219 68.933594 C 73.523438 69.167969 72.703125 69.347656 71.859375 69.484375 L 71.859375 66.058594 C 72.703125 65.917969 73.523438 65.738281 74.324219 65.503906 " fill-opacity="1" fill-rule="nonzero"/><path fill="#f37b17" d="M 79.800781 62.921875 L 79.800781 66.332031 C 79.382812 66.664062 78.941406 66.957031 78.441406 67.246094 C 78.082031 67.453125 77.722656 67.648438 77.332031 67.828125 L 77.332031 64.398438 C 77.722656 64.21875 78.082031 64.027344 78.441406 63.820312 C 78.941406 63.527344 79.382812 63.238281 79.800781 62.921875 " fill-opacity="1" fill-rule="nonzero"/><path fill="#78cc51" d="M 65.75 56.554688 C 65.824219 53.832031 66.046875 51.234375 66.359375 48.59375 C 66.691406 45.964844 67.117188 43.34375 67.738281 40.753906 C 68.355469 38.167969 69.132812 35.59375 70.296875 33.144531 C 71.46875 30.738281 73.015625 28.289062 75.507812 26.835938 C 75.839844 26.644531 76.261719 26.753906 76.457031 27.082031 C 76.640625 27.398438 76.546875 27.792969 76.253906 28 L 76.242188 28.007812 C 74.269531 29.371094 73.042969 31.636719 72.15625 33.9375 C 71.269531 36.269531 70.730469 38.757812 70.34375 41.261719 C 69.957031 43.769531 69.75 46.3125 69.640625 48.859375 C 69.542969 51.394531 69.539062 53.992188 69.671875 56.464844 L 69.671875 56.503906 C 69.730469 57.582031 68.898438 58.507812 67.816406 58.5625 C 66.734375 58.621094 65.808594 57.792969 65.75 56.714844 C 65.746094 56.660156 65.746094 56.605469 65.75 56.554688 " fill-opacity="1" fill-rule="nonzero"/><path fill="#6ac751" d="M 91.582031 29.242188 C 84.492188 33.324219 71.890625 31.152344 71.890625 31.152344 C 71.890625 31.152344 70.789062 25.433594 77.878906 21.355469 C 84.96875 17.273438 97.570312 16.371094 97.570312 16.371094 C 97.570312 16.371094 98.671875 25.160156 91.582031 29.242188 " fill-opacity="1" fill-rule="nonzero"/><path fill="#78cc51" d="M 91.582031 27.707031 C 84.492188 31.785156 71.890625 31.152344 71.890625 31.152344 C 71.890625 31.152344 70.789062 23.898438 77.878906 19.816406 C 84.96875 15.738281 97.570312 16.371094 97.570312 16.371094 C 97.570312 16.371094 98.671875 23.625 91.582031 27.707031 " fill-opacity="1" fill-rule="nonzero"/><path fill="#6ac751" d="M 85.730469 24.339844 C 80.082031 27.589844 74.5 29.648438 74.5 29.648438 C 74.5 29.648438 78.078125 26.4375 83.730469 23.183594 C 89.378906 19.933594 94.960938 17.875 94.960938 17.875 C 94.960938 17.875 91.382812 21.085938 85.730469 24.339844 " fill-opacity="1" fill-rule="nonzero"/><path fill="#6ac751" d="M 58.261719 35.246094 C 64.007812 36.167969 71.828125 31.550781 71.828125 31.550781 C 71.828125 31.550781 71.113281 27.472656 65.367188 26.546875 C 59.621094 25.625 51.019531 28.203125 51.019531 28.203125 C 51.019531 28.203125 52.515625 34.320312 58.261719 35.246094 " fill-opacity="1" fill-rule="nonzero"/><path fill="#78cc51" d="M 57.871094 34.222656 C 63.617188 35.148438 71.828125 31.550781 71.828125 31.550781 C 71.828125 31.550781 70.722656 26.453125 64.976562 25.527344 C 59.230469 24.601562 51.019531 28.203125 51.019531 28.203125 C 51.019531 28.203125 52.125 33.300781 57.871094 34.222656 " fill-opacity="1" fill-rule="nonzero"/><path fill="#6ac751" d="M 60.90625 30.511719 C 65.484375 31.25 69.71875 31.210938 69.71875 31.210938 C 69.71875 31.210938 66.523438 29.976562 61.945312 29.242188 C 57.363281 28.503906 53.132812 28.542969 53.132812 28.542969 C 53.132812 28.542969 56.324219 29.773438 60.90625 30.511719 " fill-opacity="1" fill-rule="nonzero"/><path fill="#78cc51" d="M 40.734375 75.890625 C 40.671875 73.675781 40.492188 71.5625 40.234375 69.410156 C 39.96875 67.269531 39.617188 65.136719 39.117188 63.027344 C 38.609375 60.921875 37.980469 58.828125 37.03125 56.832031 C 36.078125 54.875 34.820312 52.878906 32.789062 51.699219 C 32.519531 51.542969 32.175781 51.628906 32.015625 51.898438 C 31.867188 52.152344 31.941406 52.476562 32.179688 52.644531 L 32.191406 52.652344 C 33.796875 53.761719 34.792969 55.605469 35.515625 57.480469 C 36.242188 59.378906 36.679688 61.402344 36.992188 63.441406 C 37.308594 65.484375 37.476562 67.554688 37.566406 69.628906 C 37.644531 71.691406 37.648438 73.804688 37.539062 75.820312 L 37.539062 75.851562 C 37.492188 76.730469 38.167969 77.480469 39.050781 77.527344 C 39.933594 77.574219 40.6875 76.902344 40.734375 76.023438 C 40.734375 75.980469 40.734375 75.933594 40.734375 75.890625 " fill-opacity="1" fill-rule="nonzero"/><path fill="#6ac751" d="M 19.703125 53.65625 C 25.472656 56.980469 35.730469 55.210938 35.730469 55.210938 C 35.730469 55.210938 36.632812 50.558594 30.859375 47.234375 C 25.085938 43.910156 14.828125 43.179688 14.828125 43.179688 C 14.828125 43.179688 13.929688 50.332031 19.703125 53.65625 " fill-opacity="1" fill-rule="nonzero"/><path fill="#78cc51" d="M 19.703125 52.40625 C 25.472656 55.726562 35.730469 55.210938 35.730469 55.210938 C 35.730469 55.210938 36.632812 49.304688 30.859375 45.984375 C 25.085938 42.660156 14.828125 43.179688 14.828125 43.179688 C 14.828125 43.179688 13.929688 49.082031 19.703125 52.40625 " fill-opacity="1" fill-rule="nonzero"/><path fill="#6ac751" d="M 24.464844 49.664062 C 29.066406 52.3125 33.609375 53.988281 33.609375 53.988281 C 33.609375 53.988281 30.695312 51.375 26.097656 48.726562 C 21.496094 46.078125 16.949219 44.402344 16.949219 44.402344 C 16.949219 44.402344 19.863281 47.015625 24.464844 49.664062 " fill-opacity="1" fill-rule="nonzero"/><path fill="#6ac751" d="M 46.828125 58.542969 C 42.152344 59.296875 35.78125 55.535156 35.78125 55.535156 C 35.78125 55.535156 36.367188 52.214844 41.042969 51.464844 C 45.722656 50.710938 52.726562 52.808594 52.726562 52.808594 C 52.726562 52.808594 51.507812 57.789062 46.828125 58.542969 " fill-opacity="1" fill-rule="nonzero"/><path fill="#78cc51" d="M 47.148438 57.710938 C 42.46875 58.464844 35.78125 55.535156 35.78125 55.535156 C 35.78125 55.535156 36.683594 51.386719 41.359375 50.632812 C 46.039062 49.878906 52.726562 52.808594 52.726562 52.808594 C 52.726562 52.808594 51.824219 56.960938 47.148438 57.710938 " fill-opacity="1" fill-rule="nonzero"/><path fill="#6ac751" d="M 44.675781 54.691406 C 40.949219 55.289062 37.503906 55.257812 37.503906 55.257812 C 37.503906 55.257812 40.101562 54.253906 43.832031 53.65625 C 47.558594 53.054688 51.003906 53.085938 51.003906 53.085938 C 51.003906 53.085938 48.40625 54.089844 44.675781 54.691406 " fill-opacity="1" fill-rule="nonzero"/></svg>